<svg id="Layer_1" data-name="Layer 1" xmlns="http://www.w3.org/2000/svg" viewBox="0 0 111.23 40"><defs><style>.cls-1{fill:#2c3e50;}</style></defs><title>black</title><path class="cls-1" d="M23.67,10A8.78,8.78,0,0,0,24.92,8a7,7,0,0,0,.44-2.07,4.18,4.18,0,0,0-.64-2.4A4.78,4.78,0,0,0,23,1.71a3.5,3.5,0,0,0-1.73-.46,3.23,3.23,0,0,0-1.49.38,3,3,0,0,0-.95.73,5.22,5.22,0,0,0-.73,1.25,3.4,3.4,0,0,0-.22,1.55,5.91,5.91,0,0,0,.54,2A11.83,11.83,0,0,0,20,9.57q.73.93,1.83,2.16t2.32,2.7q1.21,1.47,2.36,3.16a23.72,23.72,0,0,1,2,3.57A17.24,17.24,0,0,1,29.73,25a11.42,11.42,0,0,1,0,4.11,9.06,9.06,0,0,1-1.79,4,14.44,14.44,0,0,1-3.56,3.28,21,21,0,0,1-4.77,2.32,22.65,22.65,0,0,1-5.42,1.15,15.83,15.83,0,0,1-5.42-.46A14.5,14.5,0,0,1,4,37.28a10,10,0,0,1-3.2-3.71,7.88,7.88,0,0,1-.62-5,13.64,13.64,0,0,1,1.93-5,11.24,11.24,0,0,1,3.56-3.5,12.54,12.54,0,0,1,4.93-1.71,16,16,0,0,1,6,.42,8.56,8.56,0,0,1-1.17,1.85,9.76,9.76,0,0,1-1.59,1.55,7.4,7.4,0,0,1-2.36,1.23,14.64,14.64,0,0,0-2.78,1.35,9.52,9.52,0,0,0-2.44,2.13,7.34,7.34,0,0,0-1.43,2.92,7.1,7.1,0,0,0,.2,3.71,6.22,6.22,0,0,0,2,3.16,8.7,8.7,0,0,0,2.84,1.59,9.75,9.75,0,0,0,2.86.5,12.54,12.54,0,0,0,2.09-.1,10.52,10.52,0,0,0,3.38-1.23A12.68,12.68,0,0,0,21.42,35a10.09,10.09,0,0,0,2.11-3.42,6.11,6.11,0,0,0,.06-4A24.63,24.63,0,0,0,21,21.65a58.52,58.52,0,0,0-3.36-4.89q-1.69-2.19-3.08-4a9.32,9.32,0,0,1-1.75-3.1,7.76,7.76,0,0,1-.28-2.6,5.5,5.5,0,0,1,.81-2.52,7.43,7.43,0,0,1,2.22-2.24A14.7,14.7,0,0,1,19.44.54,12.37,12.37,0,0,1,23.69,0a11,11,0,0,1,3.69.81A6.87,6.87,0,0,1,30,2.64a3.58,3.58,0,0,1,.93,2.5,4.57,4.57,0,0,1-2.05,3.95A7.79,7.79,0,0,1,23.67,10Z"/><path class="cls-1" d="M34.79,15.85a.64.64,0,0,1,.77-.56,3.24,3.24,0,0,1,1.33.56,9.6,9.6,0,0,1,1.45,1.21,8,8,0,0,1,1.13,1.37,2.34,2.34,0,0,1,.18,1.73,11.72,11.72,0,0,1-.75,2.3q-.52,1.21-1.11,2.32t-.87,1.75q-.28.65-.75,1.57T35.35,30a10.74,10.74,0,0,0-.52,1.77A1.48,1.48,0,0,0,35,33a.92.92,0,0,0,.81.4,2.24,2.24,0,0,0,.91-.3,3.92,3.92,0,0,0,.85-.64l.62-.62a19,19,0,0,0,2.14-2.62q1.09-1.57,2.11-3.3t2-3.46q.93-1.73,1.63-3.16t1.13-2.36a11.62,11.62,0,0,0,.46-1.09.52.52,0,0,1,.4-.4.91.91,0,0,1,.28,0,4,4,0,0,1,1.81.89A3.31,3.31,0,0,1,51,17.8a5.35,5.35,0,0,1,.22,1.83,10.41,10.41,0,0,1-.28,2,14.46,14.46,0,0,1-.89,2.3q-.69,1.49-1.49,3.16T47.1,30.39a11.1,11.1,0,0,0-.87,2.7.89.89,0,0,0,.06.66.59.59,0,0,0,.38.22.89.89,0,0,0,.46,0,1.64,1.64,0,0,0,.34-.16,13.84,13.84,0,0,0,2.78-2.32,27,27,0,0,0,2.15-2.62,23.51,23.51,0,0,0,1.43-2.22q.52-.95.6-1.07a.86.86,0,0,1,.77-.48c.11,0,.19.11.24.32v.32a16.71,16.71,0,0,1-1.17,2.22,32.43,32.43,0,0,1-1.87,2.74q-1.07,1.41-2.24,2.72A22.52,22.52,0,0,1,48,35.59a4,4,0,0,1-2.05,1,3.43,3.43,0,0,1-1.75-.24,3.8,3.8,0,0,1-1.33-.95A4.66,4.66,0,0,1,42,34.26a3.26,3.26,0,0,1-.22-1.61q.06-1,.22-2.13.16-1.25.48-2.7a18.23,18.23,0,0,1-.93,1.61q-.48.77-1.21,1.85t-1.77,2.38a7.33,7.33,0,0,1-2.09,1.91,7.81,7.81,0,0,1-1.85.79,5.48,5.48,0,0,1-1.85.08,3,3,0,0,1-2.34-1.37,5.26,5.26,0,0,1-.62-2.72,13.89,13.89,0,0,1,.52-3.44,31.53,31.53,0,0,1,1.19-3.55q.68-1.69,1.35-3l.95-1.87a6.14,6.14,0,0,0,.62-1.61,14.64,14.64,0,0,0,.26-1.49A9.78,9.78,0,0,0,34.79,15.85Z"/><path class="cls-1" d="M56.82,29.79a11.66,11.66,0,0,0-.89-.95,11,11,0,0,1-.93-1,6.57,6.57,0,0,1-.79-1.23A5,5,0,0,1,53.76,25a7.29,7.29,0,0,1,0-2.48,7.46,7.46,0,0,1,.83-2.32,6.86,6.86,0,0,1,1.65-2,7.69,7.69,0,0,1,2.5-1.35,6.83,6.83,0,0,1,1.53-.3,8.15,8.15,0,0,1,2,0,4.6,4.6,0,0,1,1.79.62,2.16,2.16,0,0,1,1,1.49A1.61,1.61,0,0,1,65,19q0,.18-.44.18a5.26,5.26,0,0,1-.79-.08,5,5,0,0,0-1.11,0,4.39,4.39,0,0,0-1.25.28,3.55,3.55,0,0,0-1.25.85,4.9,4.9,0,0,0-1,1.65,4.22,4.22,0,0,0-.22,2.3,8,8,0,0,0,.73,2.18,10.3,10.3,0,0,0,1.21,1.89,21.24,21.24,0,0,0,1.83-1.11,13.63,13.63,0,0,0,1.11-.85q.44-.38.85-.77t1-.91a.86.86,0,0,1,.4-.24.78.78,0,0,1,.6,0,.26.26,0,0,1,.16.32,1.12,1.12,0,0,1-.28.52A12.26,12.26,0,0,1,65,26.56q-.87.65-1.65,1.13T62,28.48a7.2,7.2,0,0,1-.68.34A5.16,5.16,0,0,1,62,30a6,6,0,0,1,.34,3.65,5.41,5.41,0,0,1-.91,2,9.07,9.07,0,0,1-1.11,1.23A6.83,6.83,0,0,1,58.84,38a6.33,6.33,0,0,1-4.07.6,3.06,3.06,0,0,1-1.69-.83,3.12,3.12,0,0,1-.81-1.43,3.61,3.61,0,0,1,0-1.65,4.13,4.13,0,0,1,.66-1.53q.44-.56,1.27-1.49A9.63,9.63,0,0,1,56.82,29.79Zm.68.68-.81.58a5.49,5.49,0,0,0-1.65,2.05,3.83,3.83,0,0,0-.42,1.45A2.14,2.14,0,0,0,55,35.93a2.65,2.65,0,0,0,2.82.7,2.94,2.94,0,0,0,1-.7,2.58,2.58,0,0,0,.62-1.13,2.73,2.73,0,0,0,0-1.43A5.1,5.1,0,0,0,58.78,32,11.53,11.53,0,0,0,57.51,30.47Z"/><path class="cls-1" d="M82.2,33.78a19.62,19.62,0,0,0,1.53-2q.81-1.17,1.53-2.34l1.31-2.13q.58-1,.87-1.37a.42.42,0,0,1,.32-.22.44.44,0,0,1,.34.1.61.61,0,0,1,.18.38.83.83,0,0,1-.12.54q-.32.56-.91,1.53l-1.21,2q-.63,1-1.21,1.89t-.91,1.33A6.65,6.65,0,0,1,81,36a4.65,4.65,0,0,1-3.4,0,2.92,2.92,0,0,1-1.77-1.67,4.44,4.44,0,0,1-.2-2.6q.12-.6.36-1.51t.5-1.77L77,26.87l.24-.79q-.4.6-1,1.51l-1.13,1.79-1,1.59a7.21,7.21,0,0,1-.62.87q-1.29,1.65-2.2,2.6a9.84,9.84,0,0,1-2,1.59,3.75,3.75,0,0,1-1.27.38,6,6,0,0,1-1.83,0,5.1,5.1,0,0,1-1.81-.62,2.7,2.7,0,0,1-1.21-1.45,5.12,5.12,0,0,1-.24-2.42,14.29,14.29,0,0,1,.56-2.6A17,17,0,0,1,64.44,27q.52-1.07.85-1.63a21.23,21.23,0,0,1,4.41-5.26A14.12,14.12,0,0,1,76,17a13.31,13.31,0,0,1,6.08,0,4.44,4.44,0,0,1,.79.32,2.3,2.3,0,0,1,.62.46.7.7,0,0,1,.22.52q0,.26-.46.46a7.67,7.67,0,0,1-.93.24q-.73.16-1.65.42t-1.91.6A10.13,10.13,0,0,0,77,20.8a15.45,15.45,0,0,0-3.38,2.64,21.79,21.79,0,0,0-4,5.74A14,14,0,0,0,68.87,31a6.49,6.49,0,0,0-.38,1.73,2,2,0,0,0,.14.95.59.59,0,0,0,.44.34,1.22,1.22,0,0,0,.6-.08A3.94,3.94,0,0,0,71,32.87a22.07,22.07,0,0,0,1.63-2q.83-1.13,1.61-2.32t1.27-2.07a26.58,26.58,0,0,1,2.56-3.93A5.12,5.12,0,0,1,79.82,21a8.67,8.67,0,0,1,2.2-.56,4.28,4.28,0,0,1,1.71.08q.36.08.3.77a7.59,7.59,0,0,1-.42,1.73q-.36,1-.93,2.36L81.54,28.1l-1.15,2.7a22.84,22.84,0,0,0-.89,2.42,1.37,1.37,0,0,0,0,1,1,1,0,0,0,.58.54,1.38,1.38,0,0,0,1-.08A3.2,3.2,0,0,0,82.2,33.78Z"/><path class="cls-1" d="M89,15.85a6.48,6.48,0,0,1,1.77-.64,3,3,0,0,1,1.45.12,2,2,0,0,1,1.13,1.29A5,5,0,0,1,93.6,19a19.82,19.82,0,0,1-.48,2.6,22.85,22.85,0,0,1-1,2.94,34.61,34.61,0,0,1,2.7-3.91q.6-.77,1.33-1.53a18.87,18.87,0,0,1,1.51-1.43,14.58,14.58,0,0,1,1.61-1.19,7.35,7.35,0,0,1,1.71-.81,6.38,6.38,0,0,1,2.94-.3,4.26,4.26,0,0,1,1.93.81,3.25,3.25,0,0,1,1,1.37,2.86,2.86,0,0,1,.22,1.39,9,9,0,0,1-.48,1.87q-.4,1.15-1,2.5t-1.23,2.76q-.65,1.41-1.23,2.72t-1,2.36a15.28,15.28,0,0,0-.6,1.61,2,2,0,0,0-.06,1.27.64.64,0,0,0,.58.4,1.9,1.9,0,0,0,.93-.24,5.19,5.19,0,0,0,1-.62,7.33,7.33,0,0,0,1-1.07q.6-.74,1.29-1.65T107.6,29q.7-1,1.27-1.79l.95-1.37q.38-.54.42-.58a1.77,1.77,0,0,1,.32-.32.39.39,0,0,1,.52,0q.24.16.08.56l-.16.4q-1.53,2.34-2.86,4.27-.56.85-1.17,1.67t-1.15,1.53q-.54.71-1,1.23a7.13,7.13,0,0,1-.73.77,5.22,5.22,0,0,1-1.91.95,6.13,6.13,0,0,1-2.2.2,5,5,0,0,1-2-.6,3.35,3.35,0,0,1-1.39-1.47,3.23,3.23,0,0,1-.18-1.81A18.87,18.87,0,0,1,97,30q.38-1.43.93-2.94T99,24.27q.54-1.29,1-2.2a11.22,11.22,0,0,1,.58-1.15,2.94,2.94,0,0,0,.38-1.19,1.29,1.29,0,0,0-.24-1,1,1,0,0,0-1-.26,4.5,4.5,0,0,0-1.81.95A10.48,10.48,0,0,0,96.22,21q-.89,1-1.81,2.28t-1.81,2.64q-.89,1.39-1.65,2.66t-1.33,2.34Q89,32,88.77,32.61a7.11,7.11,0,0,0-.58,1.63A6.07,6.07,0,0,0,88,35.39a3.22,3.22,0,0,0,.12.93,6,6,0,0,1-2.09-.83,5.1,5.1,0,0,1-1.29-1.21,4.49,4.49,0,0,1-.68-1.33,5.69,5.69,0,0,1-.24-1.19,3,3,0,0,1,.22-1.11q.26-.79.68-1.81t.95-2.22q.52-1.19,1-2.34t.87-2.18q.38-1,.58-1.75.52-2.13.73-3.34A6.88,6.88,0,0,0,89,15.85Z"/></svg>